<svg width="155" height="19" viewBox="0 0 155 19" fill="none" xmlns="http://www.w3.org/2000/svg">
<g clip-path="url(#clip0_11_3)">
<path d="M130.26 0.699997H124.82V18.13H130.26V0.699997Z" fill="#ED1C24"/>
<path d="M147.93 2.58C147.72 2.06 147.47 1.66 147.19 1.37C146.91 1.08 146.61 0.889997 146.3 0.799997C146.11 0.739997 145.92 0.709997 145.73 0.699997H142.37C142.17 0.699997 141.97 0.739997 141.78 0.799997C141.46 0.899997 141.17 1.09 140.89 1.37C140.61 1.65 140.35 2.06 140.14 2.58L133.1 18.13H135.94L138.14 13.13H147.22L149.42 18.13H154.98L147.93 2.58ZM139.02 11.1L142.67 2.83L146.32 11.1H139.02Z" fill="#ED1C24"/>
<path d="M118.79 13.15C117.98 11.5 117.26 10.37 115.47 10.11C117.75 9.69 119.35 7.95 119.35 5.69C119.35 2.93 117.41 0.670003 112.68 0.710003H104.53C103.38 0.710003 102.55 1.64 102.55 2.78V18.13H107.4V10.83H109.49C111.35 10.83 112.66 11.8 113.35 13.26L115.7 18.14H121.23L118.79 13.15ZM111.2 8.79H107.4V3.79C107.4 3.22 107.87 2.75 108.44 2.75H111.33C113.26 2.75 114.34 4.19 114.34 5.74C114.34 7.27 113.19 8.79 111.2 8.79Z" fill="#ED1C24"/>
<path d="M26.99 0C20.14 0 16.04 4.23 16.04 9.46C16.04 14.69 20.15 18.91 26.99 18.91C33.85 18.91 37.96 14.68 37.96 9.46C37.96 4.23 33.85 0 26.99 0ZM26.99 16.88C23.71 16.88 21.21 13.55 21.21 9.45C21.21 5.35 23.71 2.02 26.99 2.02C30.28 2.02 32.78 5.34 32.78 9.45C32.78 13.55 30.28 16.88 26.99 16.88Z" fill="#ED1C24"/>
<path d="M38.89 2.79H46.11V18.13H51.54V2.79H57.63V0.699997H38.89V2.79Z" fill="#ED1C24"/>
<path d="M59.62 2.79H65.7V18.13H71.14V2.79H78.35V0.699997H59.62V2.79Z" fill="#ED1C24"/>
<path d="M5.22 15V0.699997H0V16.05C0 17.19 0.93 18.12 2.08 18.12H15.42V16.03H6.25C5.68 16.04 5.22 15.58 5.22 15Z" fill="#ED1C24"/>
<path d="M81.31 2.77V16.06C81.31 17.2 82.24 18.13 83.39 18.13H97.6V16.07H87.57C86.99 16.07 86.54 15.61 86.54 15.04V9.89H97.46V7.85H86.53V3.79C86.53 3.22 86.99 2.75 87.56 2.75H97.6V0.699997H83.39C82.24 0.699997 81.31 1.62 81.31 2.77Z" fill="#ED1C24"/>
</g>
<defs>
<clipPath id="clip0_11_3">
<rect width="154.97" height="18.91" fill="white"/>
</clipPath>
</defs>
</svg>
